<?xml version="1.0" encoding="utf-8"?>
<!-- Generator: Adobe Illustrator 16.0.0, SVG Export Plug-In . SVG Version: 6.00 Build 0)  -->
<!DOCTYPE svg PUBLIC "-//W3C//DTD SVG 1.1//EN" "http://www.w3.org/Graphics/SVG/1.1/DTD/svg11.dtd">
<svg version="1.1" id="Ebene_1" xmlns="http://www.w3.org/2000/svg" xmlns:xlink="http://www.w3.org/1999/xlink" x="0px" y="0px"
	 width="188px" height="77px" viewBox="0 0 188 77" enable-background="new 0 0 188 77" xml:space="preserve">
<rect x="0" fill="#1D1D1B" width="188.067" height="76.792"/>
<path fill="none" stroke="#FFFFFF" stroke-width="0.262" stroke-miterlimit="10" d="M17.999,19.088c0,0,1.921,0.567,2.228,3.668
	c0.306,3.101,0.349,5.284,1.135,6.376s1.136,11.486,5.546,19.304c4.411,7.817,9.652,5.284,11.705,3.537
	c2.053-1.746,5.677-7.992,5.809-14.237c0-0.83,0,1.397,2.052,0.087c2.053-1.31,1.092-0.174,1.441-0.699
	c0.35-0.524,0.611-1.878,1.31-2.271s-1.703,0.743-2.402,1.397c-0.699,0.655-1.441,0.306-1.397-0.873
	c0.043-1.179-0.306-6.114,0.087-6.813s0.393-1.485,1.441-1.311c1.048,0.175,6.42,1.834,6.9,2.926s1.048,3.406,0.83,6.551
	c-0.219,3.145-0.087,2.751,0.131,3.276c0.218,0.523,0.568,1.004,0.961,1.354s0.393,1.966,1.092,4.367
	c0.699,2.402,3.756,16.727,16.464,22.187c12.709,5.459,20.046-7.163,20.046-7.163s2.839-4.542,2.97-7.293
	c-0.044-1.354,1.267-1.311,1.267-1.311s0.655-0.043,1.223-3.887c0.567-3.843,1.223-3.8,2.883-3.625
	c1.659,0.175,4.542,0.524,5.109-0.087s0.218-1.18,0.611-1.267c0.393-0.088-0.35,0.218,0.219,0.786
	c0.567,0.567,1.004,1.267,1.965,0.567c0.961-0.698,0.131,0,0.873,0.044c0.743,0.044,8.517-0.044,15.242-0.48
	s20.046-1.791,20.046-1.791s2.533-2.97,1.441-4.105s-4.892,0.087-9.084-0.043c-4.192-0.131-15.548,0.218-17.207,0.218
	c-1.66,0-6.464,0.087-8.517-0.043c-2.053-0.131-3.014-0.612-3.362-0.262c-0.35,0.349-0.786,0.175-0.917,0.874
	c-0.132,0.698-0.263,1.048-0.263,1.048s0-0.262,0-0.655c0-0.393,0-0.611-0.087-0.742c-0.088-0.131-0.175-0.393-0.611-0.349
	c-0.438,0.043-0.35-0.087-1.092-0.044c-0.743,0.044-9.608-3.363-14.543-7.381c-4.935-4.018-20.526-8.822-28.475-5.765
	c-7.949,3.057-8.429,1.092-10.351,0.35c0,0-7.381-1.048-11.137-5.503S29.572,9.437,25.03,11.227s-6.769,2.14-6.9,2.096
	c-0.131-0.043-0.131,5.59-0.131,5.59"/>
<path fill="none" stroke="#FFFFFF" stroke-width="0.262" stroke-miterlimit="10" d="M18.042,16.162c0,0,4.018,2.577,4.28,2.271
	c0.262-0.306,1.179-5.197,4.28-5.678c3.101-0.48,5.59,0.83,7.599,2.751c2.009,1.922,6.944,4.804,8.342,11.137
	c1.397,6.333,1.31,11.442,0.655,14.15c-0.655,2.707-2.664,10.088-7.031,11.529s-7.119-1.703-9.652-6.245
	c-2.533-4.542-4.411-13.451-4.804-19.042s0.218-8.254,0.437-8.341s3.057-0.219,3.275-0.393c0.218-0.175,1.092-0.219,1.529-0.087
	c0.437,0.131,10.001-0.131,10.001-0.131"/>
<path fill="none" stroke="#FFFFFF" stroke-width="0.262" stroke-miterlimit="10" d="M33.11,12.755c0,0,24.5,1.223,25.767,1.223
	s2.096,0,2.533,0c0.437,0,22.623-0.087,23.146-0.044c0.524,0.044,8.909-0.83,21.226,4.717c12.315,5.546,19.347,7.817,17.862,10.176
	c-1.485,2.358-1.529,2.533-9.128-1.441c-7.6-3.975-20.658-10.089-31.183-9.39c-10.525,0.699-23.846-0.35-23.846-0.35l-19.696,0.175"
	/>
<path fill="none" stroke="#FFFFFF" stroke-width="0.262" stroke-miterlimit="10" d="M60.755,29.352c0,0-3.263,1.812-3.732,8.731
	c-0.095,1.399-0.076,3.007,0.107,4.851c1.092,10.962,8.517,20.57,12.971,22.491c4.455,1.922,14.805,7.992,22.797-5.065
	c5.284-10.656,2.14-20.046,2.14-20.352s0.219,0.35,2.009,0.48c1.791,0.131,8.778,1.747,10.481,1.397c1.704-0.35,0-0.568-1.092-0.524
	s-3.057-0.218-4.323-0.262s-7.468-0.786-7.687-1.441s-4.324-9.827-11.18-10.918c-4.28-1.485-12.141-4.804-18.474-1.747
	c0,0-6.158,0.349-7.774,8.778c-1.616,8.429-0.131,4.586,0.087,4.629c0.218,0.044,1.878,4.979,2.533,6.07
	c0.655,1.093,1.921,4.019,2.227,4.193s0.611,1.135,1.616,0.742c1.005-0.394,1.66-0.655,1.965-1.179
	c0.306-0.524-0.174-1.791-0.393-2.271c-0.218-0.48-2.14-5.547-2.271-5.853c-0.131-0.306-1.528-3.231-1.528-3.231l-1.354-1.66
	c0,0-0.874,0.087-1.048,0.262c-0.175,0.175-0.131-0.044-0.743,0.218s-0.874,1.179-0.874,1.179s0-0.262,0.655-0.306
	c0.655-0.044,1.135-0.087,1.31-0.044c0.175,0.044,0.611,0.219,0.786,0.611c0.175,0.394,0.306,0.786,0.699,1.791
	c0.393,1.004,0.611,2.358,0.961,2.97c0.349,0.611,0.961,1.747,1.354,2.184s0.524,0.83,0.699,1.136
	c0.174,0.306,0.567,0.961,0.742,1.136c0.175,0.174,0.175,0.306,0.175,0.611s0.262,0.567-0.306,0.829
	c-0.568,0.263-1.31,0.438-1.485,0.438s-0.83-0.612-1.267-0.961c-0.437-0.35-0.917-1.049-1.048-1.66
	c-0.131-0.611-0.655-2.009-0.655-2.358c0-0.349,0-1.267-0.306-1.834s-0.393-1.267-0.524-1.354c-0.131-0.088-0.655-0.961-0.655-0.961
	s0.043-0.524-0.131-0.568c-0.174-0.043-0.611-0.043-0.742-0.043s-0.917,1.048-0.917,1.048s-1.485-0.48-1.572-0.699
	c-0.087-0.218,0.043-1.746,0.043-2.445c0-0.699,0.262-6.463-1.135-8.473c-1.398-2.009-7.818-3.188-7.905-2.227
	c-0.087,0.96-0.262,0.699-0.262,1.048c0,0.35-0.655-3.799-1.179-5.153s-1.922-2.227-3.8-4.062s-4.236-5.284-8.254-6.726
	s-8.647-2.489-10.088-0.786c-1.441,1.703-3.625,1.135-3.975,1.267c-0.349,0.131-0.567,1.965-0.087,2.97
	c0.48,1.004,4.236,2.009,4.716,2.14c0.48,0.131-0.786-1.092,0.218-1.092c1.005,0,0.306,0,1.529,0s2.096,0,2.664,0
	s1.965,0,2.184-0.043s0.655,0,1.048-0.35c0.393-0.349,0.567-0.742-0.044-0.742s-0.742,0-1.791,0c-1.048,0-1.092-0.043-1.921,0
	c-0.83,0.043-1.354-0.087-1.616,0c-0.262,0.087-0.699-0.175-0.742,0.131c-0.044,0.306-0.044,0.743-0.044,0.743
	s-0.262,0.175-0.349-0.175c-0.087-0.349-0.306-0.48-0.131-0.742c0.175-0.262,0.306-0.524,0.437-0.786
	c0.131-0.262-0.743-0.087,0.131-0.262s-0.262-0.218,1.354-0.218s2.62,0,2.62,0s0.568,0,1.311-0.131
	c0.742-0.131,0.786-0.218,1.004-0.349s1.179-0.568,0.175-0.568s-2.402,0-2.795,0s-0.349-0.087-1.223,0s-1.267,0.044-1.66,0.087
	s-0.437,0.087-0.655,0.306c-0.219,0.218-0.262,0.044-0.393,0.437c-0.131,0.393-0.743,0.044-0.219-0.262
	c0.524-0.306,1.136-1.048,1.529-1.179s0-0.568,1.66-0.611c1.659-0.044,1.703-0.131,2.97-0.131s-0.131,0.393,4.891,0.655
	s20.963,0.917,24.85,1.004c0.665,0.015,0.131,3.756-0.786,3.538s-0.131-3.275-0.175-3.538"/>
<path fill="none" stroke="#FFFFFF" stroke-width="0.262" stroke-miterlimit="10" d="M145.786,38.217c0,0-0.087,3.145,0.611,3.931
	c0.699,0.786,0.437-0.087,2.097-0.262c1.659-0.175,10.045-0.786,14.499-1.835c4.455-1.048,4.455-0.349,5.241,2.097
	s0.524,3.756,1.397,4.542s1.048,1.397,2.009,0.437s0.961-1.135,1.485-2.358c0.523-1.223,0.873-3.145,0.873-3.145
	s0.35,1.922-1.397-1.048s-2.795-5.066-4.542-5.153s-0.961-0.437-3.756-0.349c-2.795,0.087-2.708,0.349-5.59,0.786
	c-2.883,0.437-5.503,1.136-8.211,1.311S145.786,38.217,145.786,38.217z"/>
<path fill="none" stroke="#FFFFFF" stroke-width="0.262" stroke-miterlimit="10" d="M46.911,37.722c0,0.022,0.007,0.167,0.009,0.393
	c0.004,0.385-0.007,1.004-0.093,1.64c-0.065,0.479-0.174,0.969-0.353,1.374c-0.553,1.252-0.669,1.048-0.524,1.775
	c0.146,0.729-0.175,1.34,0.495,1.631c0.669,0.291,0.524,0.728,1.456-0.029s1.194-1.427,1.66-2.241
	c0.466-0.815,1.019-2.737,1.281-4.339c0.262-1.601,0.35-2.94,0.116-3.406c-0.233-0.466,0.029-0.815-0.96-0.815
	c-0.99,0-0.67-0.233-1.514,0.408s-0.99,0.99-1.136,1.369c-0.146,0.378-0.233,3.377-0.233,3.377l-0.815,3.057
	c0,0-1.223,1.572-0.437,2.387c0.786,0.815,2.824,1.223,4.222-3.027c1.398-4.251,0.786-6.813-0.495-6.667
	c-1.281,0.146-3.494,3.145-4.164,2.009c-0.67-1.135,0-3.377,0.058-4.95c0.058-1.572,0.466-3.581,0.291-3.989
	c-0.174-0.408,7.046,0.757,7.745,1.63s1.368-1.893,4.309-2.912c2.941-1.019,11.996-3.756,22.273-0.32
	c10.278,3.436,10.423,3.232,13.713,5.911s9.957,6.493,11.559,6.318s3.058-0.058,2.271,3.29c-1.194,0-12.199-1.339-12.986-1.63"/>
</svg>
