<?xml version="1.0" encoding="utf-8"?>
<!-- Generator: Adobe Illustrator 16.0.0, SVG Export Plug-In . SVG Version: 6.00 Build 0)  -->
<!DOCTYPE svg PUBLIC "-//W3C//DTD SVG 1.1//EN" "http://www.w3.org/Graphics/SVG/1.1/DTD/svg11.dtd">
<svg version="1.1" id="Ebene_1" xmlns="http://www.w3.org/2000/svg" xmlns:xlink="http://www.w3.org/1999/xlink" x="0px" y="0px"
	 width="20px" height="20px" viewBox="0 0 20 20" enable-background="new 0 0 20 20" xml:space="preserve">
<path fill="#E0586D" d="M18.932,0H1.029C0.46,0,0,0.461,0,1.031v17.904c0,0.568,0.46,1.029,1.029,1.029h17.902
	c0.571,0,1.029-0.461,1.029-1.029V1.031C19.961,0.461,19.503,0,18.932,0z M16.35,5.635c-0.799,0.011-1.225,0.011-1.68,0.011
	c-1.447,0-1.453,1.669-1.453,1.669v1.76h2.994l-0.369,3.076h-2.625v7.791h-3.159v-7.791H7.374V9.076h2.684v-1.76
	c0,0-0.008-4.505,4.62-4.505c0.518,0,1.672-0.005,1.672-0.005S16.35,4.554,16.35,5.635z"/>
</svg>
