<?xml version="1.0" encoding="utf-8"?>
<!-- Generator: Adobe Illustrator 16.0.0, SVG Export Plug-In . SVG Version: 6.00 Build 0)  -->
<!DOCTYPE svg PUBLIC "-//W3C//DTD SVG 1.1//EN" "http://www.w3.org/Graphics/SVG/1.1/DTD/svg11.dtd">
<svg version="1.1" id="Ebene_1" xmlns="http://www.w3.org/2000/svg" xmlns:xlink="http://www.w3.org/1999/xlink" x="0px" y="0px"
	 width="20px" height="20px" viewBox="0 0 20 20" enable-background="new 0 0 20 20" xml:space="preserve">
<g>
	<path fill="#E0586D" d="M12.177,10.278c0,1.096-0.893,1.991-1.993,1.991c-1.107,0-2.002-0.896-2.002-1.991
		c0-1.106,0.896-2.001,2.002-2.001C11.284,8.277,12.177,9.172,12.177,10.278z"/>
	<path fill="#E0586D" d="M14.602,8.232c0.29,0.623,0.451,1.313,0.451,2.046c0,2.687-2.184,4.866-4.869,4.866
		c-2.692,0-4.871-2.18-4.871-4.866c0-0.733,0.16-1.423,0.446-2.046H0v10.738c0,0.568,0.458,1.03,1.029,1.03h17.875
		c0.569,0,1.028-0.462,1.028-1.03V8.232H14.602z"/>
	<path fill="#E0586D" d="M18.904,0.062H1.029C0.458,0.062,0,0.524,0,1.091v5.353h7.175c0.829-0.648,1.874-1.038,3.009-1.038
		c1.134,0,2.177,0.389,3.006,1.038h6.743V1.091C19.933,0.524,19.474,0.062,18.904,0.062z M17.141,5.167
		c0,0.083-0.067,0.153-0.15,0.153h-2.649c-0.083,0-0.15-0.069-0.15-0.153v-2.65c0-0.08,0.067-0.153,0.15-0.153h2.649
		c0.083,0,0.15,0.073,0.15,0.153V5.167z"/>
</g>
</svg>
