<?xml version="1.0" encoding="utf-8"?>
<!-- Generator: Adobe Illustrator 16.0.0, SVG Export Plug-In . SVG Version: 6.00 Build 0)  -->
<!DOCTYPE svg PUBLIC "-//W3C//DTD SVG 1.1//EN" "http://www.w3.org/Graphics/SVG/1.1/DTD/svg11.dtd">
<svg version="1.1" id="Ebene_1" xmlns="http://www.w3.org/2000/svg" xmlns:xlink="http://www.w3.org/1999/xlink" x="0px" y="0px"
	 width="20px" height="20px" viewBox="0 0 20 20" enable-background="new 0 0 20 20" xml:space="preserve">
<path fill-rule="evenodd" clip-rule="evenodd" fill="#E0586D" d="M6.81,19.607c0.061-0.101,0.117-0.189,0.172-0.286
	c0.249-0.419,0.468-0.85,0.639-1.306c0.12-0.319,0.199-0.65,0.286-0.983c0.171-0.672,0.342-1.348,0.515-2.026
	c0-0.004,0.002-0.008,0.009-0.022c0.017,0.029,0.034,0.052,0.047,0.07c0.178,0.281,0.427,0.489,0.708,0.665
	c0.345,0.203,0.722,0.333,1.121,0.396c0.284,0.044,0.57,0.037,0.858,0.019c0.371-0.037,0.734-0.107,1.087-0.227
	c0.461-0.152,0.885-0.379,1.264-0.672c0.423-0.318,0.779-0.69,1.081-1.116c0.293-0.412,0.523-0.854,0.716-1.322
	c0.186-0.454,0.315-0.926,0.409-1.406c0.074-0.394,0.126-0.789,0.145-1.186c0.011-0.197,0.019-0.392,0.019-0.588
	c-0.004-0.542-0.089-1.071-0.26-1.588c-0.193-0.561-0.472-1.079-0.832-1.55c-0.327-0.423-0.706-0.789-1.129-1.101
	c-0.62-0.456-1.308-0.773-2.05-0.968c-0.367-0.097-0.737-0.156-1.115-0.189c-0.31-0.028-0.618-0.035-0.928-0.024
	C8.737,4.222,7.927,4.36,7.142,4.646c-0.685,0.249-1.314,0.598-1.881,1.06c-0.36,0.291-0.683,0.62-0.967,0.983
	c-0.332,0.427-0.602,0.889-0.808,1.39C3.289,8.553,3.157,9.045,3.098,9.557c-0.046,0.384-0.042,0.768-0.007,1.152
	c0.044,0.458,0.137,0.902,0.306,1.327c0.195,0.498,0.477,0.936,0.884,1.281c0.221,0.188,0.466,0.337,0.735,0.444
	c0.134,0.056,0.264,0.056,0.37-0.051c0.045-0.045,0.083-0.108,0.1-0.168c0.08-0.289,0.149-0.583,0.223-0.872
	c0.028-0.119,0.003-0.23-0.07-0.33c-0.069-0.092-0.142-0.179-0.208-0.268c-0.223-0.305-0.366-0.647-0.442-1.017
	c-0.063-0.319-0.074-0.641-0.054-0.961c0.022-0.451,0.112-0.889,0.264-1.314c0.163-0.457,0.396-0.876,0.696-1.256
	c0.442-0.561,0.993-0.985,1.643-1.28C7.953,6.056,8.39,5.939,8.841,5.874c0.334-0.048,0.67-0.059,1.008-0.048
	c0.527,0.022,1.045,0.113,1.538,0.306c0.509,0.2,0.954,0.494,1.318,0.902c0.334,0.384,0.564,0.824,0.702,1.315
	c0.114,0.408,0.159,0.826,0.141,1.249c-0.011,0.26-0.019,0.521-0.045,0.781c-0.041,0.423-0.114,0.84-0.227,1.252
	c-0.141,0.523-0.338,1.028-0.624,1.492c-0.182,0.297-0.394,0.564-0.656,0.798c-0.339,0.301-0.725,0.505-1.178,0.564
	c-0.462,0.059-0.893-0.019-1.267-0.312c-0.313-0.237-0.492-0.557-0.54-0.95c-0.034-0.245,0.011-0.489,0.082-0.727
	c0.171-0.589,0.345-1.175,0.518-1.762c0.101-0.343,0.193-0.687,0.243-1.042c0.046-0.327,0.046-0.65-0.057-0.967
	C9.643,8.262,9.301,7.952,8.806,7.891C8.269,7.824,7.827,8.01,7.459,8.394C7.14,8.724,6.954,9.126,6.85,9.57
	c-0.08,0.332-0.102,0.668-0.08,1.008c0.026,0.419,0.111,0.823,0.271,1.212c0.013,0.035,0.015,0.076,0.009,0.113
	c-0.219,0.931-0.44,1.862-0.659,2.798c-0.188,0.798-0.382,1.589-0.562,2.387c-0.056,0.252-0.087,0.504-0.117,0.757
	c-0.054,0.441-0.046,0.879-0.037,1.317c0,0.008-0.002,0.011-0.004,0.029c-1.635-0.734-2.98-1.822-3.986-3.295
	c-1.519-2.216-1.998-4.658-1.5-7.297c1.142-5.481,6.669-8.789,12.012-7.202c5.374,1.596,8.144,7.357,6.168,12.524
	c-1.021,2.527-2.773,4.335-5.296,5.373C11.028,20.138,8.934,20.205,6.81,19.607z"/>
</svg>
