<?xml version="1.0" encoding="utf-8"?>
<!-- Generator: Adobe Illustrator 16.0.0, SVG Export Plug-In . SVG Version: 6.00 Build 0)  -->
<!DOCTYPE svg PUBLIC "-//W3C//DTD SVG 1.1//EN" "http://www.w3.org/Graphics/SVG/1.1/DTD/svg11.dtd">
<svg version="1.1" id="Ebene_1" xmlns="http://www.w3.org/2000/svg" xmlns:xlink="http://www.w3.org/1999/xlink" x="0px" y="0px"
	 width="20px" height="20px" viewBox="0 0 20 20" enable-background="new 0 0 20 20" xml:space="preserve">
<path fill="#E0586D" d="M18.963,0H1.032C0.461,0,0,0.463,0,1.035v17.93C0,19.534,0.461,20,1.032,20h17.931
	c0.571,0,1.031-0.466,1.031-1.035V1.035C19.994,0.463,19.534,0,18.963,0z M9.096,13.267h4.441c0,0,1.345-0.056,1.345,1.593
	s-1.345,1.617-1.345,1.617H9.096c0,0-1.442,0.048-2.453-0.887c-1.008-0.94-1.057-2.271-1.057-2.271v-7.93
	c0,0-0.021-1.445,1.633-1.445c1.652,0,1.58,1.445,1.58,1.445v1.818h4.793c0,0,1.331-0.083,1.331,1.643s-1.331,1.648-1.331,1.648
	H8.799v2.768H9.096z"/>
</svg>
